<svg height="512" viewBox="0 0 512 512" width="512" xmlns="http://www.w3.org/2000/svg"><circle cx="256" cy="256" fill="#ffda44" r="216"/><circle cx="256" cy="256" fill="#ffeb99" r="144"/><rect fill="#ffdaaa" height="88" rx="32" transform="matrix(-1 0 0 -1 512 424)" width="64" x="224" y="168"/><path d="m176 280h160a0 0 0 0 1 0 0v32a32 32 0 0 1 -32 32h-96a32 32 0 0 1 -32-32v-32a0 0 0 0 1 0 0z" fill="#91cc04" transform="matrix(-1 0 0 -1 512 624)"/><path d="m240 256h32v24h-32z" fill="#ffc477" transform="matrix(-1 0 0 -1 512 536)"/><path d="m304 272h-24v-16.021a39.963 39.963 0 0 0 16-31.979v-24a40 40 0 0 0 -80 0v24a39.963 39.963 0 0 0 16 31.979v16.021h-24a40.045 40.045 0 0 0 -40 40v32a8 8 0 0 0 8 8h160a8 8 0 0 0 8-8v-32a40.045 40.045 0 0 0 -40-40zm-72-72a24 24 0 0 1 48 0v24a24 24 0 0 1 -48 0zm16 64h16v8h-16zm80 72h-16v-16a8 8 0 0 0 -16 0v16h-80v-16a8 8 0 0 0 -16 0v16h-16v-24a24.028 24.028 0 0 1 24-24h96a24.028 24.028 0 0 1 24 24z"/><path d="m256 104c-83.813 0-152 68.187-152 152s68.187 152 152 152 152-68.187 152-152-68.187-152-152-152zm0 288c-74.99 0-136-61.009-136-136s61.01-136 136-136 136 61.009 136 136-61.01 136-136 136z"/><path d="m496 248h-16.156a223.951 223.951 0 0 0 -215.844-215.844v-16.156a8 8 0 0 0 -16 0v16.156a223.951 223.951 0 0 0 -215.844 215.844h-16.156a8 8 0 0 0 0 16h16.156a223.951 223.951 0 0 0 215.844 215.844v16.156a8 8 0 0 0 16 0v-16.156a223.951 223.951 0 0 0 215.844-215.844h16.156a8 8 0 0 0 0-16zm-232 215.831v-39.831a8 8 0 0 0 -16 0v39.831c-108.341-4.119-195.712-91.49-199.831-199.831h7.831a8 8 0 0 0 0-16h-7.831c4.119-108.341 91.49-195.712 199.831-199.831v39.831a8 8 0 0 0 16 0v-39.831c108.341 4.119 195.712 91.49 199.831 199.831h-39.831a8 8 0 0 0 0 16h39.831c-4.119 108.341-91.49 195.712-199.831 199.831z"/><path d="m88 248h-8a8 8 0 0 0 0 16h8a8 8 0 0 0 0-16z"/></svg>