<?xml version="1.0" encoding="UTF-8" standalone="no"?>
<svg
   xmlns:dc="http://purl.org/dc/elements/1.1/"
   xmlns:cc="http://creativecommons.org/ns#"
   xmlns:rdf="http://www.w3.org/1999/02/22-rdf-syntax-ns#"
   xmlns:svg="http://www.w3.org/2000/svg"
   xmlns="http://www.w3.org/2000/svg"
   xmlns:xlink="http://www.w3.org/1999/xlink"
   xmlns:sodipodi="http://sodipodi.sourceforge.net/DTD/sodipodi-0.dtd"
   xmlns:inkscape="http://www.inkscape.org/namespaces/inkscape"
   width="512"
   height="512"
   viewBox="0 0 512 512"
   version="1.1"
   id="s1"
   sodipodi:docname="QR_ico_gamman.svg"
   inkscape:version="0.92.3 (2405546, 2018-03-11)">
  <metadata
     id="metadata36">
    <rdf:RDF>
      <cc:Work
         rdf:about="">
        <dc:format>image/svg+xml</dc:format>
        <dc:type
           rdf:resource="http://purl.org/dc/dcmitype/StillImage" />
        <dc:title>QR code gamma</dc:title>
      </cc:Work>
    </rdf:RDF>
  </metadata>
  <defs
     id="defs34" />
  <sodipodi:namedview
     pagecolor="#ffffff"
     bordercolor="#666666"
     borderopacity="1"
     objecttolerance="10"
     gridtolerance="10"
     guidetolerance="10"
     inkscape:pageopacity="0"
     inkscape:pageshadow="2"
     inkscape:window-width="1920"
     inkscape:window-height="976"
     id="namedview32"
     showgrid="false"
     inkscape:zoom="0.65186407"
     inkscape:cx="281.82016"
     inkscape:cy="181.35684"
     inkscape:window-x="-8"
     inkscape:window-y="-8"
     inkscape:window-maximized="1"
     inkscape:current-layer="s1" />
  <title
     id="title2">QR code gamma</title>
  <desc
     id="desc4">Manually edited diagram of qr code</desc>
  <!--  <rect x="0" y="0" width="300" height="422" stroke="none" fill="#CFA"/>  -->
  <g
     transform="matrix(17.624224,0,0,17.624224,-23.510013,-27.614279)"
     id="g29"
     style="fill:none;stroke:#000000;stroke-width:2;stroke-linecap:butt">
    <path
       id="A"
       d="m 3,3 h 8 v 8 H 3 Z m 3,4 h 2"
       inkscape:connector-curvature="0" />
    <use
       xlink:href="#A"
       x="18"
       y="0"
       id="use7"
       width="100%"
       height="100%" />
    <use
       xlink:href="#A"
       x="0"
       y="18"
       id="use9"
       width="100%"
       height="100%" />
    <path
       d="m 18,3 h -3 v 4 h 2 v 4 h -2 v 3"
       id="path11"
       inkscape:connector-curvature="0" />
    <path
       d="m 2,15 h 2 m 2,0 h 4"
       id="path13"
       inkscape:connector-curvature="0"
       sodipodi:nodetypes="cccc" />
    <path
       d="m 4,17 h 2 m 2,0 h 8"
       id="path15"
       inkscape:connector-curvature="0"
       sodipodi:nodetypes="cccc" />
    <path
       id="path3748"
       d="m 18,18.963834 h -3 v 4 h 2 v 4 h -2 v 3"
       inkscape:connector-curvature="0" />
  </g>
  <!-- vim:nowrap:sw=2:so=2:et:ai: -->
  <path
     style="font-style:normal;font-weight:normal;font-size:2050.27807617px;font-family:'Times New Roman';fill:#000000;fill-opacity:1;stroke:none;stroke-width:0.24299082px;stroke-linecap:butt;stroke-linejoin:miter;stroke-opacity:1"
     d="m 449.21715,201.33532 h 54.80493 L 397.3387,388.39848 c 2.66055,20.01865 3.99055,37.51634 3.99069,52.4934 -1.4e-4,41.66825 -9.31166,62.50255 -27.93457,62.50255 -13.47961,0 -20.2194,-8.74902 -20.21933,-26.2467 -7e-5,-22.83606 9.93217,-51.45533 29.79689,-85.85746 -3.90211,-21.35351 -9.35599,-47.081 -16.36169,-77.18318 -7.00591,-30.10182 -14.18909,-51.6774 -21.54949,-64.72672 -7.36062,-13.04933 -17.86929,-19.57382 -31.52616,-19.57382 -22.34763,0 -34.31959,13.939 -35.91585,41.81664 h -9.57758 c 0,-48.93436 17.3815,-73.40172 52.14451,-73.40172 20.04188,0 34.94031,9.89812 44.69531,29.69435 4.02576,8.16989 8.09696,20.29853 12.21338,36.38627 5.85805,22.89422 11.80784,53.80535 17.8495,92.73373 z"
     id="text2175"
     inkscape:connector-curvature="0"
     sodipodi:nodetypes="ccccccccccccccscc" />
</svg>
